<?xml version="1.0" encoding="UTF-8"?>
<svg width="256px" height="346px" viewBox="0 0 256 346" version="1.1" xmlns="http://www.w3.org/2000/svg" xmlns:xlink="http://www.w3.org/1999/xlink" preserveAspectRatio="xMidYMid">
    <g>
        <path d="M82.5539491,267.472524 C82.5539491,267.472524 69.35552,275.147869 91.9468218,277.745105 C119.315549,280.867375 133.303389,280.419607 163.463913,274.711273 C163.463913,274.711273 171.393396,279.683258 182.467491,283.989644 C114.855564,312.966982 29.4483782,282.311215 82.5539491,267.472524" fill="#5382A1"></path>
        <path d="M74.2921309,229.658996 C74.2921309,229.658996 59.4888145,240.616727 82.0968727,242.955171 C111.333004,245.971316 134.421411,246.218007 174.373236,238.524975 C174.373236,238.524975 179.899113,244.127185 188.588218,247.190807 C106.841367,271.094691 15.79008,249.075898 74.2921309,229.658996" fill="#5382A1"></path>
        <path d="M143.941818,165.514705 C160.601367,184.695156 139.564684,201.955142 139.564684,201.955142 C139.564684,201.955142 181.866124,180.117876 162.438982,152.772422 C144.294633,127.271098 130.380335,114.600495 205.706705,70.9138618 C205.706705,70.9138618 87.4691491,100.44416 143.941818,165.514705" fill="#E76F00"></path>
        <path d="M233.364015,295.441687 C233.364015,295.441687 245.933648,304.489185 222.347164,311.410189 C184.176764,322.960056 60.7399903,324.178291 26.1551134,311.825487 C9.19857296,306.411971 34.3608,298.288991 42.6501455,296.837304 C51.5724554,295.286902 55.8145956,295.486214 55.8145956,295.486214 C36.3231585,284.832037 -32.7381412,312.443241 20.6985397,320.970275 C155.645338,341.904774 269.121481,311.686982 233.364015,295.441687" fill="#5382A1"></path>
        <path d="M88.9008873,190.479825 C88.9008873,190.479825 26.1186562,202.880219 66.6792302,206.666219 C83.7226252,208.260369 117.915885,207.740107 150.114828,205.146347 C176.56292,202.98427 203.083097,198.607687 203.083097,198.607687 C203.083097,198.607687 193.592039,203.370577 186.554191,209.166023 C105.301295,228.951954 0.978654071,220.243489 31.6325874,203.687784 C55.8144896,190.751213 88.9008873,190.479825 88.9008873,190.479825" fill="#5382A1"></path>
        <path d="M201.506444,253.422313 C283.145474,213.337289 252.949232,174.470864 226.765173,179.751904 C221.234439,180.961054 218.174723,181.995372 218.174723,181.995372 C218.174723,181.995372 220.097171,179.743941 224.561454,178.186638 C267.504382,163.259308 299.839281,219.931751 200.290667,255.14848 C200.290667,255.14848 201.03975,254.320589 201.506444,253.422313" fill="#5382A1"></path>
        <path d="M162.438982,0.371432217 C162.438982,0.371432217 198.325498,36.2572119 128.402247,91.2145913 C73.1331087,135.859108 115.616308,161.001788 128.37888,189.848669 C95.6490469,160.318371 71.6297309,134.322735 87.7437673,110.128407 C111.395375,74.6132945 176.918342,57.3942474 162.438982,0.371432217" fill="#E76F00"></path>
        <path d="M95.2683055,344.665367 C174.466365,348.646865 295.201451,343.144919 298.061008,285.284366 C298.061008,285.284366 293.651542,308.090133 231.231682,328.256875 C161.022687,350.786607 82.7751724,349.133855 39.6102685,329.329859 C39.6102685,329.329859 46.4312726,342.043357 95.2683055,344.665367" fill="#5382A1"></path>
    </g>
</svg>
